#!OML:ASF E:\acrobat2\Project_11_07_03\Capture day 1\Session 1\Acrobat.ASF
:FULLY-SPECIFIED
:DEGREES
362
root 10.7531 21.604 16.5493 3.04695 0.25785 6.87849
lowerback -10.0568 -0.711975 -4.88254
upperback -6.0065 -0.529495 -2.41177
thorax -0.601142 -0.182268 0.194089
lowerneck -1.891 -1.69846 -2.69443
upperneck 6.68301 -2.38065 3.33845
head 2.52959 -1.15973 1.46946
rclavicle 7.96381e-015 9.0944e-015
rhumerus 74.6054 -13.7137 -39.9895
rradius 25.6915
rwrist 6.14247
rhand -17.5899 -36.8601
rfingers 7.12502
rthumb 8.66609 -66.6623
lclavicle 7.96381e-015 9.0944e-015
lhumerus 79.8581 12.2655 32.3901
lradius 21.7273
lwrist -2.55146
lhand -5.55471 -12.205
lfingers 7.12502
lthumb 20.2604 16.7583
rfemur 9.76541 7.10277 9.09415
rtibia -3.7166
rfoot -18.468 -14.6692
rtoes 12.542
lfemur 4.97605 -1.12498 -23.117
ltibia 1.75113
lfoot -13.0648 -3.37471
ltoes 7.45573
363
root 10.7535 21.6069 16.5557 3.02998 0.289526 6.85094
lowerback -9.99245 -0.701036 -4.85397
upperback -6.04164 -0.523544 -2.40883
thorax -0.673229 -0.178224 0.182367
lowerneck -1.80045 -1.69661 -2.70007
upperneck 6.56356 -2.38016 3.38842
head 2.47432 -1.15932 1.4866
rclavicle 6.16854e-015 -4.70126e-014
rhumerus 75.2849 -14.0692 -40.5278
rradius 25.5819
rwrist 6.78293
rhand -17.1179 -36.926
rfingers 7.12502
rthumb 9.12155 -66.7087
lclavicle 6.16854e-015 -4.70126e-014
lhumerus 80.4555 12.4807 32.5864
lradius 21.6701
lwrist -2.7394
lhand -5.40446 -12.0916
lfingers 7.12502
lthumb 20.4048 16.8563
rfemur 9.80665 7.16236 9.14657
rtibia -3.69733
rfoot -18.7441 -14.5548
rtoes 13.4614
lfemur 4.97515 -1.14227 -23.102
ltibia 1.80032
lfoot -13.0844 -3.29964
ltoes 6.96224
364
root 10.7537 21.6103 16.5596 3.01271 0.309956 6.84752
lowerback -9.92436 -0.692433 -4.84152
upperback -6.07775 -0.519623 -2.4195
thorax -0.748419 -0.174985 0.165351
lowerneck -1.75391 -1.70035 -2.65867
upperneck 6.48888 -2.38645 3.39531
head 2.44053 -1.16186 1.48119
rclavicle -1.67103e-014 2.84014e-014
rhumerus 75.9367 -14.316 -41.1688
rradius 25.4019
rwrist 7.53692
rhand -16.6827 -37.0797
rfingers 7.12502
rthumb 9.54152 -66.8436
lclavicle -1.67103e-014 2.84014e-014
lhumerus 80.9383 12.6121 32.6368
lradius 21.6152
lwrist -2.8593
lhand -5.24638 -11.9516
lfingers 7.12502
lthumb 20.5567 16.98
rfemur 9.8533 7.36146 9.19165
rtibia -3.68016
rfoot -19.2527 -14.3214
rtoes 15.7306
lfemur 4.95875 -1.15004 -23.1127
ltibia 1.86853
lfoot -13.1231 -3.23153
ltoes 6.39621
365
root 10.7541 21.6141 16.5609 2.99724 0.32328 6.87202
lowerback -9.85276 -0.684719 -4.84814
upperback -6.12322 -0.516036 -2.44565
thorax -0.835501 -0.171388 0.142938
lowerneck -1.77066 -1.72272 -2.56522
upperneck 6.495 -2.41688 3.34397
head 2.44379 -1.17599 1.44706
rclavicle -7.53518e-015 -4.57205e-015
rhumerus 76.5353 -14.4378 -41.8917
rradius 25.1588
rwrist 8.34652
rhand -16.2766 -37.2714
rfingers 7.12502
rthumb 9.93331 -67.0171
lclavicle -7.53518e-015 -4.57205e-015
lhumerus 81.3373 12.6308 32.6588
lradius 21.5477
lwrist -2.97731
lhand -5.07444 -11.8236
lfingers 7.12502
lthumb 20.7219 17.0901
rfemur 9.9012 7.65411 9.21558
rtibia -3.66519
rfoot -19.919 -13.9847
rtoes 18.8624
lfemur 4.92509 -1.14288 -23.1552
ltibia 1.95524
lfoot -13.1643 -3.18451
ltoes 5.82563
366
root 10.7546 21.6182 16.5597 2.98874 0.329769 6.9228
lowerback -9.78838 -0.674502 -4.87602
upperback -6.17879 -0.507502 -2.48411
thorax -0.929566 -0.164734 0.119981
lowerneck -1.85563 -1.76863 -2.44582
upperneck 6.59457 -2.47912 3.2625
head 2.49049 -1.20529 1.39773
rclavicle 8.60986e-015 -8.59744e-015
rhumerus 77.0559 -14.4303 -42.6614
rradius 24.8701
rwrist 9.15717
rhand -15.8896 -37.4667
rfingers 7.12502
rthumb 10.3066 -67.1942
lclavicle 8.60986e-015 -8.59744e-015
lhumerus 81.6677 12.5209 32.7003
lradius 21.4685
lwrist -3.08804
lhand -4.89721 -11.7274
lfingers 7.12502
lthumb 20.8922 17.1676
rfemur 9.93261 7.95501 9.20434
rtibia -3.64319
rfoot -20.5993 -13.6008
rtoes 21.9686
lfemur 4.8692 -1.13229 -23.2298
ltibia 2.05551
lfoot -13.2016 -3.14972
ltoes 5.33948
367
root 10.7552 21.6222 16.5558 2.98721 0.324231 6.9985
lowerback -9.73169 -0.661365 -4.93186
upperback -6.24143 -0.492885 -2.52699
thorax -1.02716 -0.154189 0.108467
lowerneck -1.96957 -1.82596 -2.35281
upperneck 6.73772 -2.55795 3.20631
head 2.55865 -1.24241 1.36072
rclavicle -2.11209e-016 -3.28492e-014
rhumerus 77.4688 -14.2875 -43.4012
rradius 24.5614
rwrist 9.89979
rhand -15.5089 -37.682
rfingers 7.12502
rthumb 10.6739 -67.3909
lclavicle -2.11209e-016 -3.28492e-014
lhumerus 81.9232 12.2855 32.7637
lradius 21.3839
lwrist -3.17674
lhand -4.72597 -11.6664
lfingers 7.12502
lthumb 21.0567 17.2104
rfemur 9.91243 8.09574 9.12612
rtibia -3.59843
rfoot -20.9768 -13.3602
rtoes 23.3744
lfemur 4.79411 -1.1347 -23.3366
ltibia 2.15668
lfoot -13.2353 -3.10465
ltoes 4.98704
368
root 10.7555 21.6261 16.5487 2.98872 0.302086 7.07952
lowerback -9.65853 -0.649504 -5.01164
upperback -6.32128 -0.480453 -2.55331
thorax -1.15165 -0.143012 0.127303
lowerneck -2.0687 -1.88106 -2.31873
upperneck 6.89052 -2.63399 3.18243
head 2.62922 -1.27879 1.34464
rclavicle -3.39176e-015 -4.02539e-015
rhumerus 77.7636 -13.9848 -44.0772
rradius 24.2544
rwrist 10.503
rhand -15.2176 -37.8659
rfingers 7.12502
rthumb 10.9549 -67.5601
lclavicle -3.39176e-015 -4.02539e-015
lhumerus 82.0495 11.9314 32.7687
lradius 21.3107
lwrist -3.16776
lhand -4.56428 -11.6238
lfingers 7.12502
lthumb 21.212 17.2356
rfemur 9.84635 8.14458 9.01983
rtibia -3.52281
rfoot -21.1677 -13.2184
rtoes 23.8317
lfemur 4.70645 -1.15796 -23.4486
ltibia 2.25298
lfoot -13.2647 -3.0458
ltoes 4.88338
369
root 10.7557 21.6298 16.5385 2.98908 0.26417 7.13403
lowerback -9.60064 -0.641633 -5.08552
upperback -6.38244 -0.471939 -2.54984
thorax -1.24786 -0.134046 0.173195
lowerneck -2.17505 -1.92736 -2.34459
upperneck 7.02135 -2.69642 3.18224
head 2.69529 -1.30925 1.34704
rclavicle 2.16178e-015 7.95139e-016
rhumerus 77.9863 -13.5544 -44.7443
rradius 23.9646
rwrist 10.99
rhand -15.3404 -38.146
rfingers 7.12502
rthumb 10.8364 -67.8464
lclavicle 2.16178e-015 7.95139e-016
lhumerus 82.0451 11.5131 32.6549
lradius 21.271
lwrist -3.01805
lhand -4.42126 -11.581
lfingers 7.12502
lthumb 21.3494 17.2629
rfemur 9.72755 8.03386 8.91643
rtibia -3.42871
rfoot -20.9735 -13.3515
rtoes 22.2526
lfemur 4.61053 -1.19606 -23.524
ltibia 2.34455
lfoot -13.29 -2.96755
ltoes 4.99568
370
root 10.7558 21.6333 16.5256 2.97966 0.217419 7.1499
lowerback -9.55725 -0.641657 -5.13821
upperback -6.41703 -0.473137 -2.51513
thorax -1.30758 -0.130897 0.23871
lowerneck -2.28676 -1.95743 -2.40875
upperneck 7.12335 -2.73502 3.19252
head 2.75315 -1.32859 1.36019
rclavicle -4.18069e-015 -1.87355e-014
rhumerus 78.1277 -12.9947 -45.4076
rradius 23.7087
rwrist 11.3889
rhand -15.4168 -38.4938
rfingers 7.12502
rthumb 10.7627 -68.198
lclavicle -4.18069e-015 -1.87355e-014
lhumerus 81.9138 11.0325 32.4397
lradius 21.2625
lwrist -2.7604
lhand -4.30198 -11.5464
lfingers 7.12502
lthumb 21.464 17.2845
rfemur 9.6036 7.92783 8.86533
rtibia -3.33832
rfoot -20.6878 -13.5812
rtoes 20.1627
lfemur 4.51876 -1.23437 -23.5489
ltibia 2.43072
lfoot -13.3078 -2.8758
ltoes 5.25552
371
root 10.7561 21.6368 16.5107 2.95463 0.172518 7.13044
lowerback -9.52909 -0.64793 -5.16119
upperback -6.42946 -0.482544 -2.46396
thorax -1.33519 -0.133277 0.303947
lowerneck -2.37484 -1.97348 -2.46349
upperneck 7.19267 -2.75382 3.19009
head 2.79464 -1.33854 1.36818
rclavicle 1.56543e-015 2.25124e-014
rhumerus 78.1458 -12.3041 -46.0596
rradius 23.4923
rwrist 11.7137
rhand -15.5247 -38.8763
rfingers 7.12502
rthumb 10.6586 -68.5859
lclavicle 1.56543e-015 2.25124e-014
lhumerus 81.6869 10.4572 32.1873
lradius 21.2659
lwrist -2.43399
lhand -4.20566 -11.5446
lfingers 7.12502
lthumb 21.5565 17.2757
rfemur 9.50745 7.85876 8.87199
rtibia -3.27813
rfoot -20.3862 -13.8536
rtoes 18.0015
lfemur 4.44318 -1.259 -23.5279
ltibia 2.50936
lfoot -13.3097 -2.78783
ltoes 5.57372
372
root 10.7565 21.6403 16.4946 2.91037 0.141026 7.08956
lowerback -9.50802 -0.65716 -5.15692
upperback -6.43196 -0.496806 -2.41496
thorax -1.34824 -0.139338 0.35131
lowerneck -2.41552 -1.98278 -2.47109
upperneck 7.24138 -2.76398 3.15667
head 2.81839 -1.34438 1.35817
rclavicle -2.54072e-015 -3.0824e-014
rhumerus 77.9897 -11.486 -46.6877
rradius 23.3145
rwrist 12.0056
rhand -15.4717 -39.2703
rfingers 7.12502
rthumb 10.7098 -68.9774
lclavicle -2.54072e-015 -3.0824e-014
lhumerus 81.3964 9.74624 31.9837
lradius 21.2748
lwrist -2.09582
lhand -4.13063 -11.5927
lfingers 7.12502
lthumb 21.6285 17.2193
rfemur 9.46168 7.8503 8.92461
rtibia -3.26391
rfoot -20.1437 -14.1234
rtoes 16.234
lfemur 4.38944 -1.25734 -23.4781
ltibia 2.57795
lfoot -13.2859 -2.7034
ltoes 5.70217
